<?xml version="1.0" encoding="UTF-8"?>
<!DOCTYPE svg PUBLIC "-//W3C//DTD SVG 1.1//EN" "http://www.w3.org/Graphics/SVG/1.1/DTD/svg11.dtd">
<!-- Creator: CorelDRAW 2017 -->
<svg xmlns="http://www.w3.org/2000/svg" xml:space="preserve" width="657px" height="655px" version="1.1" style="shape-rendering:geometricPrecision; text-rendering:geometricPrecision; image-rendering:optimizeQuality; fill-rule:evenodd; clip-rule:evenodd"
viewBox="0 0 1955.13 1948.77"
 xmlns:xlink="http://www.w3.org/1999/xlink">
 <defs>
  <style type="text/css">
   <![CDATA[
    .fil0 {fill:#DA2729}
   ]]>
  </style>
 </defs>
 <g id="Слой_x0020_1">
  <metadata id="CorelCorpID_0Corel-Layer"/>
  <path class="fil0" d="M271.21 2.37c-11.47,7.16 -24.69,10.82 -37.84,19 -38.96,24.23 -62.4,45.28 -91.7,80.97 -33.9,41.29 -60.21,87.16 -85.22,143.87 -130.26,295.43 -18,628.64 162.99,870.84 21.47,28.73 75.95,99.21 102.5,126.78 12.53,13.01 17.48,20.71 27.97,31.58l84.37 85.22c11.47,10.49 19.83,17.32 30.34,29.17 27.73,31.29 176.75,151.69 216.58,182.28 44.03,33.81 86.15,63.8 132.73,96.57 189.86,133.62 393.51,244.95 636.05,277.98 41.12,2.77 70.13,2.96 111.44,-0.09 63.34,-7.79 115.92,-21.9 165.82,-47.42 25.38,-12.98 44.93,-25.49 65.78,-41.26 56.13,-42.45 116.02,-103.52 146.64,-171.95 53.01,-118.44 -41.48,-211.61 -114.5,-278.4 -35.05,-32.06 -211.56,-169.19 -239.67,-185.98 -94.39,-56.36 -143.59,-43.47 -214.39,35.88l-104.81 109.42c-25.6,25.63 -21.86,33.36 -64.4,12.04 -49.22,-24.67 -90.33,-53.33 -133.83,-80.44 -137.34,-85.59 -236.38,-171.78 -340.76,-296.3 -24.78,-29.56 -161.79,-215.73 -161.51,-262.05 9.43,-7.5 14.63,-13.45 21.81,-22.17 7.31,-8.86 11.91,-12.69 19.98,-21.6 38.76,-42.8 80.18,-94.43 110.46,-145.61 61.16,-103.4 40.77,-166.6 -23.27,-245.34 -60.7,-74.63 -195.5,-190.56 -267.9,-244.04 -25.23,-18.64 -73.13,-52.01 -111.57,-58.54 -17.57,-3.88 -27.01,-3.39 -44.09,-0.41z"/>
 </g>
</svg>
